<svg width="14" height="13" viewBox="0 0 14 13" fill="none" xmlns="http://www.w3.org/2000/svg">
<path d="M9.81159 0C7.85638 0 6.21914 1.12826 5.75754 2.65153C6.1449 2.65679 6.50451 2.73165 6.82651 2.86916H11.9874C12.1064 2.86916 12.2027 2.9655 12.2027 3.08451C12.2027 3.20354 12.1064 3.29986 11.9874 3.29986H7.50918C7.77117 3.53081 7.98674 3.81788 8.1489 4.1495H11.9874C12.1064 4.1495 12.2027 4.24582 12.2027 4.36485C12.2027 4.48386 12.1064 4.5802 11.9874 4.5802H8.31882C8.42589 4.91922 8.4858 5.29142 8.4858 5.6927C8.4858 6.06642 8.43699 6.44834 8.34932 6.82054C8.49886 6.86745 8.65196 6.90718 8.80906 6.93979L8.72011 7.97513C8.69443 8.27227 9.05702 8.43611 9.26332 8.22054L10.4276 7.00333C12.4479 6.75217 14 5.29185 14 3.52276C14 1.5773 12.1249 0 9.81159 0Z" fill="white"/>
<path d="M10.1724 11.4004C9.83072 10.3943 9.03892 9.64038 8.06881 9.31569C7.95437 9.27739 7.82924 9.33064 7.77751 9.43955L6.41223 12.3172L6.68099 10.8286C6.70959 10.6698 6.66961 10.5062 6.571 10.3786L5.8581 9.45677C5.82422 9.41284 5.77187 9.38717 5.71653 9.38717C5.66122 9.38717 5.60884 9.41284 5.57502 9.45677L4.86212 10.3786C4.76348 10.5062 4.72353 10.6698 4.7521 10.8286L5.02065 12.3159L3.65558 9.43933C3.60385 9.33018 3.47891 9.2772 3.36429 9.31569C2.39438 9.64041 1.60238 10.3943 1.26059 11.4004L1.02401 12.097C0.956082 12.2972 0.988692 12.518 1.11193 12.69C1.23519 12.862 1.43391 12.964 1.64549 12.964H9.78765C9.99921 12.964 10.1979 12.862 10.3212 12.69C10.4445 12.518 10.477 12.2972 10.4091 12.097L10.1724 11.4004Z" fill="white"/>
<path d="M5.7165 8.95121C6.88919 8.95121 7.83975 7.25449 7.83975 5.69276C7.83975 4.13103 6.88919 3.29572 5.7165 3.29572C4.54431 3.29572 3.59369 4.13103 3.59369 5.69276C3.59369 7.25449 4.54431 8.95121 5.7165 8.95121Z" fill="white"/>
</svg>
